<svg xmlns="http://www.w3.org/2000/svg" xmlns:xlink="http://www.w3.org/1999/xlink" width="230" zoomAndPan="magnify" viewBox="0 0 172.5 74.999997" height="100" preserveAspectRatio="xMidYMid meet" version="1.0"><defs><clipPath id="ca77c64aef"><path d="M 110.835938 6.554688 L 162.4375 6.554688 L 162.4375 68.625 L 110.835938 68.625 Z M 110.835938 6.554688 " clip-rule="nonzero"/></clipPath><clipPath id="c92e12f64a"><path d="M 4.644531 6.554688 L 36 6.554688 L 36 68.625 L 4.644531 68.625 Z M 4.644531 6.554688 " clip-rule="nonzero"/></clipPath><clipPath id="bf9a01f621"><path d="M 37 6.554688 L 69.707031 6.554688 L 69.707031 68.625 L 37 68.625 Z M 37 6.554688 " clip-rule="nonzero"/></clipPath></defs><g clip-path="url(#ca77c64aef)"><path fill="#ff3e00" d="M 159.148438 14.757812 C 153.390625 6.515625 142.015625 4.074219 133.792969 9.3125 L 119.351562 18.515625 C 118.378906 19.128906 117.476562 19.835938 116.648438 20.636719 C 115.820312 21.441406 115.085938 22.320312 114.441406 23.273438 C 113.796875 24.230469 113.257812 25.242188 112.824219 26.308594 C 112.390625 27.375 112.070312 28.476562 111.867188 29.609375 C 111.523438 31.519531 111.5 33.4375 111.792969 35.355469 C 112.089844 37.273438 112.6875 39.09375 113.589844 40.8125 C 112.339844 42.707031 111.511719 44.769531 111.109375 47 C 110.695312 49.339844 110.75 51.664062 111.273438 53.980469 C 111.792969 56.296875 112.746094 58.421875 114.125 60.351562 C 119.886719 68.59375 131.257812 71.035156 139.480469 65.796875 L 153.921875 56.59375 C 154.898438 55.980469 155.796875 55.273438 156.625 54.472656 C 157.453125 53.667969 158.191406 52.789062 158.835938 51.835938 C 159.480469 50.878906 160.015625 49.867188 160.449219 48.800781 C 160.882812 47.734375 161.203125 46.632812 161.40625 45.5 C 161.75 43.585938 161.773438 41.671875 161.480469 39.753906 C 161.1875 37.835938 160.589844 36.015625 159.6875 34.296875 C 160.933594 32.402344 161.761719 30.339844 162.164062 28.109375 C 162.578125 25.769531 162.527344 23.445312 162.003906 21.128906 C 161.480469 18.8125 160.527344 16.6875 159.148438 14.757812 " fill-opacity="1" fill-rule="nonzero"/></g><path fill="#ffffff" d="M 132.382812 61.136719 C 127.726562 62.347656 122.808594 60.523438 120.066406 56.570312 C 119.234375 55.410156 118.664062 54.132812 118.347656 52.738281 C 118.035156 51.347656 118 49.945312 118.25 48.539062 C 118.335938 48.082031 118.449219 47.632812 118.597656 47.191406 L 118.867188 46.363281 L 119.609375 46.90625 C 121.332031 48.171875 123.214844 49.113281 125.261719 49.730469 L 125.796875 49.890625 L 125.746094 50.425781 C 125.679688 51.214844 125.875 51.929688 126.328125 52.574219 C 126.53125 52.867188 126.773438 53.121094 127.050781 53.335938 C 127.332031 53.554688 127.636719 53.722656 127.96875 53.847656 C 128.300781 53.96875 128.640625 54.039062 128.996094 54.058594 C 129.347656 54.074219 129.695312 54.039062 130.039062 53.949219 C 130.355469 53.867188 130.648438 53.738281 130.925781 53.5625 L 145.371094 44.355469 C 146.117188 43.886719 146.570312 43.214844 146.726562 42.347656 C 146.882812 41.464844 146.703125 40.65625 146.179688 39.925781 C 145.980469 39.636719 145.738281 39.382812 145.460938 39.164062 C 145.179688 38.949219 144.875 38.777344 144.542969 38.65625 C 144.210938 38.53125 143.867188 38.460938 143.515625 38.441406 C 143.164062 38.425781 142.8125 38.460938 142.472656 38.550781 C 142.15625 38.632812 141.859375 38.761719 141.585938 38.9375 L 136.074219 42.453125 C 135.160156 43.03125 134.183594 43.460938 133.140625 43.738281 C 128.484375 44.949219 123.566406 43.128906 120.824219 39.175781 C 119.996094 38.011719 119.421875 36.734375 119.105469 35.34375 C 118.792969 33.949219 118.757812 32.550781 119.007812 31.144531 C 119.257812 29.765625 119.773438 28.496094 120.558594 27.332031 C 121.339844 26.171875 122.324219 25.21875 123.511719 24.472656 L 137.957031 15.265625 C 138.871094 14.6875 139.847656 14.257812 140.890625 13.976562 C 145.546875 12.765625 150.464844 14.589844 153.207031 18.542969 C 154.039062 19.703125 154.609375 20.980469 154.925781 22.375 C 155.238281 23.765625 155.273438 25.167969 155.023438 26.570312 C 154.9375 27.03125 154.824219 27.480469 154.675781 27.921875 L 154.40625 28.75 L 153.664062 28.207031 C 151.945312 26.941406 150.058594 26 148.015625 25.382812 L 147.476562 25.21875 L 147.527344 24.683594 C 147.59375 23.898438 147.398438 23.183594 146.945312 22.539062 C 146.742188 22.246094 146.503906 21.992188 146.222656 21.777344 C 145.945312 21.558594 145.636719 21.390625 145.308594 21.265625 C 144.976562 21.144531 144.632812 21.074219 144.28125 21.054688 C 143.925781 21.035156 143.578125 21.074219 143.234375 21.160156 C 142.921875 21.246094 142.625 21.375 142.347656 21.550781 L 127.902344 30.753906 C 127.15625 31.226562 126.703125 31.894531 126.546875 32.765625 C 126.390625 33.648438 126.570312 34.457031 127.09375 35.1875 C 127.292969 35.476562 127.535156 35.730469 127.8125 35.949219 C 128.09375 36.164062 128.398438 36.335938 128.730469 36.457031 C 129.0625 36.582031 129.40625 36.652344 129.757812 36.667969 C 130.113281 36.6875 130.460938 36.652344 130.800781 36.5625 C 131.117188 36.480469 131.414062 36.347656 131.691406 36.171875 L 137.199219 32.660156 C 138.113281 32.082031 139.089844 31.652344 140.132812 31.371094 C 144.789062 30.160156 149.707031 31.984375 152.449219 35.9375 C 153.28125 37.097656 153.851562 38.375 154.167969 39.769531 C 154.480469 41.160156 154.515625 42.5625 154.265625 43.96875 C 154.015625 45.347656 153.5 46.617188 152.71875 47.78125 C 151.933594 48.941406 150.949219 49.894531 149.761719 50.640625 L 135.316406 59.847656 C 134.40625 60.425781 133.425781 60.855469 132.382812 61.136719 " fill-opacity="1" fill-rule="nonzero"/><g clip-path="url(#c92e12f64a)"><path fill="#378bba" d="M 35.519531 68.546875 L 4.644531 37.589844 L 35.519531 6.628906 L 35.519531 22.109375 L 20.082031 37.589844 L 35.519531 53.066406 Z M 35.519531 68.546875 " fill-opacity="1" fill-rule="nonzero"/></g><path fill="#378bba" d="M 35.519531 48.644531 L 24.492188 37.589844 L 35.519531 26.53125 Z M 35.519531 48.644531 " fill-opacity="1" fill-rule="nonzero"/><g clip-path="url(#bf9a01f621)"><path fill="#30b9db" d="M 37.726562 6.628906 L 37.726562 22.109375 L 53.164062 37.589844 L 37.726562 53.066406 L 37.726562 68.546875 L 69.707031 37.589844 Z M 37.726562 6.628906 " fill-opacity="1" fill-rule="nonzero"/></g><path fill="#ffffff" d="M 86.753906 28.386719 L 91.242188 28.386719 L 91.242188 46.335938 L 86.753906 46.335938 Z M 86.753906 28.386719 " fill-opacity="1" fill-rule="nonzero"/><path fill="#ffffff" d="M 80.023438 35.117188 L 97.972656 35.117188 L 97.972656 39.605469 L 80.023438 39.605469 Z M 80.023438 35.117188 " fill-opacity="1" fill-rule="nonzero"/></svg>